 <svg width="89" height="40" viewBox="0 0 89 40" fill="none" xmlns="http://www.w3.org/2000/svg">
              <path d="M15.7553 4.43407C16.3657 4.45047 16.9578 4.22448 17.4021 3.80552C17.6175 3.60523 17.7882 3.36173 17.903 3.09095C18.0178 2.82017 18.0741 2.52821 18.0684 2.23415C18.0753 1.93669 18.0195 1.64111 17.9047 1.3666C17.7899 1.09209 17.6187 0.844799 17.4021 0.640787C16.9533 0.228678 16.3662 0 15.7569 0C15.1476 0 14.5605 0.228678 14.1117 0.640787C13.8951 0.844799 13.7238 1.09209 13.609 1.3666C13.4942 1.64111 13.4385 1.93669 13.4454 2.23415C13.4396 2.52821 13.496 2.82017 13.6108 3.09095C13.7256 3.36173 13.8963 3.60523 14.1117 3.80552C14.555 4.224 15.1459 4.44998 15.7553 4.43407V4.43407Z" fill="white"/>
              <path d="M17.7166 5.867H8.64668V4.33648C8.6453 4.24054 8.66354 4.14534 8.70029 4.05671C8.73704 3.96807 8.79152 3.88789 8.86038 3.82108C8.92697 3.75191 9.00711 3.69723 9.09579 3.66046C9.18448 3.62369 9.27981 3.60561 9.3758 3.60736H11.6889V0.41748H8.52097C7.34768 0.41748 6.42685 0.75166 5.7585 1.42002C5.08909 2.08942 4.75281 3.01339 4.75281 4.18564V5.867H2.59375V9.05689H4.75281V18.7554H8.64668V9.05689H13.7976V13.1927H17.7166V5.867Z" fill="white"/>
              <path d="M17.7137 18.7558H17.7169V15.921H13.7979V16.0122H17.7137V18.7558Z" fill="white"/>
              <path d="M21.5096 6.89801C20.8412 7.56636 20.506 8.48719 20.5039 9.66048V18.7556H24.3883V9.91191C24.3829 9.79526 24.4025 9.67879 24.4459 9.57037C24.4893 9.46194 24.5554 9.36408 24.6398 9.28336C24.8015 9.12723 25.0184 9.04137 25.2432 9.04451H28.0308V5.89233H24.2972C23.1009 5.89233 22.1717 6.22755 21.5096 6.89801Z" fill="white"/>
              <path d="M31.4691 13.5166C32.1933 13.8018 32.9662 13.9428 33.7445 13.9314H36.0167C36.1748 13.9293 36.3308 13.9683 36.4692 14.0446C36.5987 14.1213 36.7068 14.2294 36.7835 14.3589C36.868 14.4945 36.9116 14.6516 36.9092 14.8114C36.9089 14.963 36.8653 15.1112 36.7835 15.2388C36.706 15.3677 36.5981 15.4756 36.4692 15.5531C36.3302 15.6281 36.1746 15.667 36.0167 15.6662H29.8003V18.7556H36.5572C37.3013 18.766 38.0343 18.5749 38.6786 18.2024C39.2988 17.8435 39.8178 17.3331 40.1871 16.7191C40.5642 16.0992 40.7602 15.3861 40.7528 14.6606C40.7876 13.8435 40.5916 13.0331 40.1871 12.3224C39.8181 11.7263 39.2672 11.2646 38.6157 11.0055C37.8425 10.7119 37.0196 10.571 36.1927 10.5907H33.9928C33.8833 10.5924 33.7747 10.5721 33.6732 10.531C33.5718 10.4899 33.4797 10.4289 33.4023 10.3515C33.3249 10.2741 33.2639 10.182 33.2228 10.0805C33.1817 9.9791 33.1614 9.87045 33.1631 9.76102C33.1612 9.65713 33.1815 9.55403 33.2227 9.45863C33.2639 9.36324 33.325 9.27775 33.4019 9.2079C33.4805 9.13294 33.5732 9.07434 33.6746 9.0355C33.7761 8.99666 33.8842 8.97834 33.9928 8.98162H39.5931V5.86716H33.3673C32.6428 5.85971 31.9295 6.04752 31.3026 6.41085C30.6926 6.76238 30.1829 7.26445 29.8223 7.86909C29.4601 8.47572 29.273 9.17082 29.2818 9.8773C29.2439 10.6929 29.4496 11.5014 29.8726 12.1998C30.2555 12.7935 30.8134 13.2537 31.4691 13.5166Z" fill="white"/>
              <path d="M47.5601 5.86694H43.6411V9.05683H47.5601V5.86694Z" fill="white"/>
              <path d="M51.1019 5.86694H47.5601V9.05683H51.1019V5.86694Z" fill="white"/>
              <path d="M43.6381 5.86694H41.5293V9.05683H43.6381V5.86694Z" fill="white"/>
              <path d="M47.5601 2.72729H43.6411V5.8669H47.5601V2.72729Z" fill="white"/>
              <path d="M43.6409 14.9872C43.6144 15.4897 43.6898 15.9924 43.8627 16.465C44.0355 16.9376 44.3022 17.3703 44.6466 17.7371C45.3149 18.416 46.2442 18.7554 47.4342 18.7554H51.1018V15.4901H48.2733C48.1774 15.4915 48.0822 15.4732 47.9935 15.4365C47.9049 15.3997 47.8247 15.3452 47.7579 15.2764C47.6887 15.2098 47.6341 15.1296 47.5973 15.041C47.5605 14.9523 47.5424 14.857 47.5442 14.761V9.05688H43.6409V14.9872Z" fill="white"/>
              <path d="M9.33806 26.6C8.56369 26.3064 7.7398 26.1655 6.91187 26.1851H4.71195C4.60253 26.1868 4.49387 26.1665 4.39244 26.1254C4.29101 26.0843 4.19887 26.0233 4.12149 25.9459C4.0441 25.8685 3.98306 25.7764 3.94196 25.675C3.90087 25.5735 3.88056 25.4649 3.88226 25.3555C3.88036 25.2516 3.90068 25.1485 3.94188 25.0531C3.98307 24.9577 4.04419 24.8722 4.12111 24.8023C4.19991 24.7277 4.29264 24.6693 4.39402 24.6304C4.4954 24.5916 4.60343 24.5731 4.71195 24.576H10.3123V21.4616H4.09911C3.37139 21.4549 2.65554 21.6461 2.02804 22.0147C1.4173 22.3649 0.906578 22.8659 0.544667 23.4698C0.182806 24.0777 -0.00424636 24.7737 0.00411502 25.4812C-0.032271 26.2966 0.173294 27.1047 0.594953 27.8036C0.983085 28.3955 1.5453 28.8523 2.20404 29.111C2.92706 29.3964 3.69901 29.5374 4.47624 29.5259H6.73587C6.89401 29.5234 7.05005 29.5624 7.18842 29.639C7.31792 29.7157 7.42601 29.8238 7.5027 29.9533C7.58799 30.0886 7.63171 30.2459 7.62842 30.4058C7.6281 30.5574 7.58448 30.7057 7.5027 30.8333C7.42634 30.963 7.31818 31.0712 7.18842 31.1475C7.05005 31.2241 6.89401 31.2631 6.73587 31.2607H0.532094V34.35H7.28899C8.03436 34.3629 8.76905 34.1716 9.41349 33.7969C10.0319 33.4381 10.5497 32.9289 10.9189 32.3166C11.296 31.6968 11.4919 30.9837 11.4846 30.2581C11.5194 29.4411 11.3233 28.6307 10.9189 27.9199C10.5476 27.3214 9.99323 26.8585 9.33806 26.6V26.6Z" fill="white"/>
              <path d="M24.1595 21.9139C23.2569 21.3877 22.2244 21.1263 21.1802 21.1596C20.5674 21.1609 19.9582 21.2542 19.3731 21.4362C18.7691 21.6214 18.2059 21.9201 17.7137 22.3161V18.7554H13.7979V16.0087V34.3466H17.7169V27.0146C17.7092 26.5719 17.8269 26.1361 18.0563 25.7575C18.2853 25.3871 18.6055 25.0817 18.9862 24.8704C19.367 24.6591 19.7956 24.549 20.231 24.5506C20.6683 24.5463 21.0982 24.6638 21.4724 24.8901C21.8449 25.1116 22.156 25.4227 22.3775 25.7952C22.6076 26.1862 22.7251 26.6332 22.717 27.0868V34.3466H26.6108V26.936C26.6249 25.9136 26.4101 24.901 25.9823 23.9724C25.591 23.1215 24.9568 22.4053 24.1595 21.9139V21.9139Z" fill="white"/>
              <path d="M17.7137 16.0121H13.7979V18.7557H17.7137V16.0121Z" fill="white"/>
              <path d="M33.44 21.4614H29.521V34.3467H33.44V21.4614Z" fill="white"/>
              <path d="M48.0631 23.1334C47.4577 22.4965 46.721 21.999 45.904 21.6752C44.9784 21.3177 43.9923 21.1427 43.0002 21.1598C41.7316 21.1307 40.477 21.4294 39.3577 22.0272C38.3431 22.5889 37.5109 23.4298 36.9598 24.4502C36.3666 25.5889 36.0725 26.8595 36.105 28.143V39.7994H39.9988V32.9419H40.0743C40.3244 33.3144 40.6446 33.6346 41.0171 33.8848C41.4043 34.1395 41.8283 34.3334 42.2742 34.4599C42.7512 34.5969 43.2455 34.6647 43.7418 34.661C44.8692 34.6869 45.9818 34.4008 46.9569 33.8345C47.8777 33.2814 48.6298 32.4869 49.1316 31.5371C49.6745 30.494 49.9469 29.3313 49.9236 28.1555C49.9347 27.201 49.7728 26.2523 49.4459 25.3554C49.1408 24.5284 48.6703 23.7724 48.0631 23.1334V23.1334ZM45.5772 29.6012C45.3515 30.0828 44.9996 30.4944 44.5589 30.7923C44.0927 31.0968 43.5441 31.2504 42.9876 31.2323C42.4314 31.2472 41.8837 31.0938 41.4162 30.7923C40.9714 30.4991 40.6184 30.0862 40.398 29.6012C40.1555 29.0644 40.0353 28.4804 40.046 27.8915C40.0363 27.2997 40.1564 26.7129 40.398 26.1725C40.6159 25.6817 40.9691 25.2631 41.4162 24.9656C41.8844 24.6655 42.4316 24.5123 42.9876 24.5257C43.5439 24.509 44.0922 24.6624 44.5589 24.9656C45.0022 25.2674 45.3544 25.6847 45.5772 26.1725C45.8258 26.711 45.9504 27.2984 45.9418 27.8915C45.9515 28.4817 45.8268 29.0663 45.5772 29.6012V29.6012Z" fill="white"/>
              <path d="M63.5 23.1335C62.8934 22.4965 62.1556 21.999 61.3378 21.6752C60.4132 21.3178 59.4282 21.1428 58.4371 21.1598C57.1684 21.1303 55.9137 21.4291 54.7946 22.0272C53.7753 22.587 52.9386 23.4281 52.3841 24.4503C51.7909 25.5889 51.4968 26.8596 51.5293 28.143V39.7995H55.4231V32.942H55.5017C55.7518 33.3145 56.0721 33.6347 56.4445 33.8848C56.8319 34.1392 57.2558 34.3332 57.7016 34.4599C58.1798 34.5968 58.6751 34.6645 59.1724 34.6611C60.2998 34.6869 61.4124 34.4009 62.3875 33.8345C63.3082 33.2822 64.0594 32.4875 64.5591 31.5372C65.102 30.4941 65.3743 29.3313 65.3511 28.1556C65.3621 27.201 65.2003 26.2523 64.8734 25.3554C64.5712 24.5292 64.1039 23.7732 63.5 23.1335V23.1335ZM61.011 29.6012C60.7862 30.0835 60.4341 30.4953 59.9927 30.7924C59.5314 31.0949 58.9884 31.2484 58.4371 31.2323C57.8809 31.2476 57.3331 31.0943 56.8657 30.7924C56.4195 30.5007 56.0661 30.0874 55.8474 29.6012C55.605 29.0644 55.4848 28.4805 55.4954 27.8916C55.4857 27.2997 55.6059 26.7129 55.8474 26.1725C56.0642 25.6707 56.4266 25.2455 56.8877 24.9519C57.3489 24.6583 57.8875 24.5098 58.4339 24.5257C58.9851 24.5112 59.5276 24.6647 59.9896 24.9657C60.4337 25.2664 60.7861 25.6841 61.0078 26.1725C61.2565 26.711 61.381 27.2985 61.3724 27.8916C61.3831 28.4815 61.2595 29.0661 61.011 29.6012V29.6012Z" fill="white"/>
              <path d="M76.5269 22.0146C75.4958 21.4142 74.3158 21.1179 73.1233 21.1598C71.9868 21.1475 70.8664 21.429 69.8706 21.9769C68.8902 22.5215 68.0781 23.3249 67.523 24.2994C66.9109 25.4046 66.607 26.6539 66.643 27.9167C66.618 29.0993 66.9356 30.2638 67.5575 31.27C68.1878 32.2506 69.0807 33.0346 70.1346 33.5328C71.3359 34.0969 72.6513 34.3755 73.9782 34.3467H77.7966V31.1317H73.8525C73.3581 31.139 72.8657 31.0669 72.3942 30.918C71.9842 30.7905 71.6126 30.5625 71.3131 30.2549C71.0255 29.9445 70.8268 29.5624 70.738 29.1486H79.1763C79.2183 28.92 79.2477 28.6892 79.2642 28.4572C79.2894 28.165 79.302 27.9104 79.302 27.6904C79.3252 26.53 79.0857 25.3793 78.6011 24.3245C78.1471 23.3705 77.4267 22.5683 76.5269 22.0146V22.0146ZM70.6374 26.7287C70.6882 26.4246 70.7671 26.1258 70.8731 25.8362C70.9799 25.5505 71.1375 25.2864 71.3383 25.0568C71.5484 24.825 71.8055 24.6407 72.0925 24.5162C72.681 24.2769 73.3344 24.2503 73.9404 24.4408C74.1663 24.5206 74.3784 24.6351 74.569 24.7802C74.753 24.9255 74.9168 25.0946 75.0561 25.2831C75.2037 25.4823 75.3104 25.7087 75.3704 25.9493C75.4405 26.2049 75.491 26.4655 75.5212 26.7287H70.6374Z" fill="white"/>
              <path d="M85.2572 21.496C84.0661 21.496 83.139 21.8322 82.4664 22.5017C81.7939 23.1711 81.4639 24.0919 81.4639 25.2641V34.3561H85.3577V25.5061C85.3515 25.3894 85.3707 25.2727 85.4141 25.1641C85.4575 25.0556 85.5241 24.9578 85.6091 24.8776C85.6887 24.7995 85.7831 24.7382 85.8867 24.6972C85.9904 24.6562 86.1011 24.6363 86.2126 24.6387H89.0002V21.496H85.2572Z" fill="white"/>
            </svg>