<svg width="78" height="54" viewBox="0 0 78 54" fill="none" xmlns="http://www.w3.org/2000/svg">
<rect width="78" height="54" rx="10" fill="#1B2752"/>
<path d="M47.4 36H30.6C30.4409 36 30.2882 35.9368 30.1757 35.8243C30.0632 35.7118 30 35.5591 30 35.4V19.8C30 19.6409 30.0632 19.4882 30.1757 19.3757C30.2882 19.2632 30.4409 19.2 30.6 19.2H32.4V18.6C32.4 18.3856 32.5144 18.1875 32.7 18.0804C32.8856 17.9732 33.1144 17.9732 33.3 18.0804C33.4856 18.1875 33.6 18.3856 33.6 18.6V19.2H44.4V18.6C44.4 18.3856 44.5144 18.1875 44.7 18.0804C44.8856 17.9732 45.1144 17.9732 45.3 18.0804C45.4856 18.1875 45.6 18.3856 45.6 18.6V19.2H47.4C47.5591 19.2 47.7118 19.2632 47.8243 19.3757C47.9368 19.4882 48 19.6409 48 19.8V35.4C48 35.5591 47.9368 35.7118 47.8243 35.8243C47.7118 35.9368 47.5591 36 47.4 36ZM31.2 34.8H46.8V24H31.2V34.8ZM31.2 22.8H46.8V20.4H45.6V21C45.6 21.2144 45.4856 21.4125 45.3 21.5196C45.1144 21.6268 44.8856 21.6268 44.7 21.5196C44.5144 21.4125 44.4 21.2144 44.4 21V20.4H33.6V21C33.6 21.2144 33.4856 21.4125 33.3 21.5196C33.1144 21.6268 32.8856 21.6268 32.7 21.5196C32.5144 21.4125 32.4 21.2144 32.4 21V20.4H31.2V22.8ZM45 32.4H43.8C43.6409 32.4 43.4882 32.3368 43.3757 32.2243C43.2632 32.1118 43.2 31.9591 43.2 31.8V30.6C43.2 30.4409 43.2632 30.2882 43.3757 30.1757C43.4882 30.0632 43.6409 30 43.8 30H45C45.1591 30 45.3118 30.0632 45.4243 30.1757C45.5368 30.2882 45.6 30.4409 45.6 30.6V31.8C45.6 31.9591 45.5368 32.1118 45.4243 32.2243C45.3118 32.3368 45.1591 32.4 45 32.4ZM41.4 32.4H40.2C40.0409 32.4 39.8882 32.3368 39.7757 32.2243C39.6632 32.1118 39.6 31.9591 39.6 31.8V30.6C39.6 30.4409 39.6632 30.2882 39.7757 30.1757C39.8882 30.0632 40.0409 30 40.2 30H41.4C41.5591 30 41.7118 30.0632 41.8243 30.1757C41.9368 30.2882 42 30.4409 42 30.6V31.8C42 31.9591 41.9368 32.1118 41.8243 32.2243C41.7118 32.3368 41.5591 32.4 41.4 32.4ZM37.8 32.4H36.6C36.4409 32.4 36.2882 32.3368 36.1757 32.2243C36.0632 32.1118 36 31.9591 36 31.8V30.6C36 30.4409 36.0632 30.2882 36.1757 30.1757C36.2882 30.0632 36.4409 30 36.6 30H37.8C37.9591 30 38.1118 30.0632 38.2243 30.1757C38.3368 30.2882 38.4 30.4409 38.4 30.6V31.8C38.4 31.9591 38.3368 32.1118 38.2243 32.2243C38.1118 32.3368 37.9591 32.4 37.8 32.4ZM34.2 32.4H33C32.8409 32.4 32.6882 32.3368 32.5757 32.2243C32.4632 32.1118 32.4 31.9591 32.4 31.8V30.6C32.4 30.4409 32.4632 30.2882 32.5757 30.1757C32.6882 30.0632 32.8409 30 33 30H34.2C34.3591 30 34.5118 30.0632 34.6243 30.1757C34.7368 30.2882 34.8 30.4409 34.8 30.6V31.8C34.8 31.9591 34.7368 32.1118 34.6243 32.2243C34.5118 32.3368 34.3591 32.4 34.2 32.4ZM45 28.8H43.8C43.6409 28.8 43.4882 28.7368 43.3757 28.6243C43.2632 28.5118 43.2 28.3591 43.2 28.2V27C43.2 26.8409 43.2632 26.6882 43.3757 26.5757C43.4882 26.4632 43.6409 26.4 43.8 26.4H45C45.1591 26.4 45.3118 26.4632 45.4243 26.5757C45.5368 26.6882 45.6 26.8409 45.6 27V28.2C45.6 28.3591 45.5368 28.5118 45.4243 28.6243C45.3118 28.7368 45.1591 28.8 45 28.8ZM41.4 28.8H40.2C40.0409 28.8 39.8882 28.7368 39.7757 28.6243C39.6632 28.5118 39.6 28.3591 39.6 28.2V27C39.6 26.8409 39.6632 26.6882 39.7757 26.5757C39.8882 26.4632 40.0409 26.4 40.2 26.4H41.4C41.5591 26.4 41.7118 26.4632 41.8243 26.5757C41.9368 26.6882 42 26.8409 42 27V28.2C42 28.3591 41.9368 28.5118 41.8243 28.6243C41.7118 28.7368 41.5591 28.8 41.4 28.8ZM37.8 28.8H36.6C36.4409 28.8 36.2882 28.7368 36.1757 28.6243C36.0632 28.5118 36 28.3591 36 28.2V27C36 26.8409 36.0632 26.6882 36.1757 26.5757C36.2882 26.4632 36.4409 26.4 36.6 26.4H37.8C37.9591 26.4 38.1118 26.4632 38.2243 26.5757C38.3368 26.6882 38.4 26.8409 38.4 27V28.2C38.4 28.3591 38.3368 28.5118 38.2243 28.6243C38.1118 28.7368 37.9591 28.8 37.8 28.8ZM34.2 28.8H33C32.8409 28.8 32.6882 28.7368 32.5757 28.6243C32.4632 28.5118 32.4 28.3591 32.4 28.2V27C32.4 26.8409 32.4632 26.6882 32.5757 26.5757C32.6882 26.4632 32.8409 26.4 33 26.4H34.2C34.3591 26.4 34.5118 26.4632 34.6243 26.5757C34.7368 26.6882 34.8 26.8409 34.8 27V28.2C34.8 28.3591 34.7368 28.5118 34.6243 28.6243C34.5118 28.7368 34.3591 28.8 34.2 28.8Z" fill="white"/>
</svg>
