<svg width="26" height="26" viewBox="0 0 26 26" fill="none" xmlns="http://www.w3.org/2000/svg">
                      <path d="M20.3125 17.875V6.50002C20.3138 6.17955 20.2517 5.86198 20.1297 5.56564C20.0077 5.26931 19.8282 5.00006 19.6016 4.77345C19.375 4.54684 19.1057 4.36735 18.8094 4.24533C18.513 4.12331 18.1955 4.06118 17.875 4.06252H4.0625" stroke="#161628" stroke-width="2" stroke-linecap="round" stroke-linejoin="round"></path>
                      <path d="M10.5625 10.5625H17.0625" stroke="#161628" stroke-width="2" stroke-linecap="round" stroke-linejoin="round"></path>
                      <path d="M10.5625 13.8125H17.0625" stroke="#161628" stroke-width="2" stroke-linecap="round" stroke-linejoin="round"></path>
                      <path d="M2.24453 8.12504C1.98142 7.83045 1.79384 7.47633 1.69794 7.09317C1.60204 6.71001 1.60069 6.30928 1.694 5.92548C1.78732 5.54168 1.9725 5.18631 2.23362 4.88995C2.49474 4.59359 2.82396 4.36512 3.19295 4.22422C3.56195 4.08331 3.95966 4.03419 4.35184 4.08108C4.74403 4.12796 5.11895 4.26946 5.44433 4.49337C5.76971 4.71729 6.0358 5.01693 6.2197 5.36649C6.40359 5.71605 6.49979 6.10506 6.5 6.50004V19.5C6.50021 19.895 6.5964 20.284 6.7803 20.6336C6.9642 20.9832 7.23029 21.2828 7.55567 21.5067C7.88105 21.7306 8.25597 21.8721 8.64815 21.919C9.04034 21.9659 9.43805 21.9168 9.80705 21.7759C10.176 21.635 10.5053 21.4065 10.7664 21.1101C11.0275 20.8138 11.2127 20.4584 11.306 20.0746C11.3993 19.6908 11.398 19.2901 11.3021 18.9069C11.2062 18.5237 11.0186 18.1696 10.7555 17.875H22.1305C22.4442 18.2258 22.6497 18.66 22.7221 19.125C22.7946 19.59 22.7308 20.0661 22.5385 20.4957C22.3463 20.9253 22.0338 21.29 21.6388 21.5459C21.2438 21.8017 20.7831 21.9378 20.3125 21.9375H8.9375" stroke="#161628" stroke-width="2" stroke-linecap="round" stroke-linejoin="round"></path>
                    </svg>