<svg width="16" height="22" viewBox="0 0 16 22" fill="none" xmlns="http://www.w3.org/2000/svg">
                            <path d="M7.9998 11.0002C7.29244 11.0002 6.6143 10.7104 6.11408 10.1948C5.61408 9.67901 5.33313 8.97967 5.33313 8.25022C5.33313 7.52078 5.61408 6.82145 6.11408 6.30561C6.61428 5.78999 7.29244 5.50027 7.9998 5.50027C8.70715 5.50027 9.3853 5.78999 9.88551 6.30561C10.3855 6.82143 10.6665 7.52078 10.6665 8.25022C10.6665 8.97967 10.3855 9.67899 9.88551 10.1948C9.38531 10.7104 8.70715 11.0002 7.9998 11.0002ZM7.9998 7.33357C7.76408 7.33357 7.53789 7.43015 7.37123 7.60202C7.20456 7.77389 7.11091 8.00715 7.11091 8.25022C7.11091 8.4933 7.20456 8.72656 7.37123 8.89843C7.53789 9.07029 7.76408 9.16687 7.9998 9.16687C8.23551 9.16687 8.46171 9.07029 8.62837 8.89843C8.79503 8.72656 8.88869 8.4933 8.88869 8.25022C8.88869 8.00715 8.79503 7.77389 8.62837 7.60202C8.46171 7.43015 8.23551 7.33357 7.9998 7.33357ZM7.9998 22C7.76349 22.0014 7.5365 21.9057 7.36864 21.7342C7.1109 21.4226 0 14.0616 0 8.25C0 5.30258 1.52483 2.57881 4 1.10536C6.47517 -0.368454 9.52483 -0.368454 12 1.10536C14.4752 2.57897 16 5.30252 16 8.25C16 14.0616 8.88889 21.4225 8.63137 21.7342C8.46351 21.9057 8.23612 22.0014 7.9998 22ZM7.9998 1.83367C6.34961 1.83367 4.76688 2.50968 3.6 3.71301C2.43312 4.91634 1.77757 6.5485 1.77757 8.25022C1.77757 12.3844 6.30197 17.8478 7.9998 19.7539C9.69763 17.8564 14.222 12.4207 14.222 8.25022C14.222 6.5485 13.5665 4.91634 12.3996 3.71301C11.2327 2.50968 9.64998 1.83367 7.9998 1.83367Z" fill="#F6F6F6"></path>
                          </svg>