<svg width="26" height="26" viewBox="0 0 33 33" fill="none" xmlns="http://www.w3.org/2000/svg">
                      <path d="M29.6356 9.12655C29.6321 9.12655 29.6289 9.12519 29.6264 9.12278C29.624 9.12036 29.6227 9.11708 29.6227 9.11366C29.4363 8.79644 29.1695 8.53408 28.8492 8.35312L17.5055 1.97226C17.1981 1.80066 16.852 1.71057 16.5 1.71057C16.148 1.71057 15.8019 1.80066 15.4945 1.97226L4.15079 8.35312C3.83049 8.53408 3.56367 8.79644 3.37735 9.11366C3.37735 9.11708 3.37599 9.12036 3.37358 9.12278C3.37116 9.12519 3.36788 9.12655 3.36446 9.12655V9.15233C3.18625 9.45267 3.0927 9.79568 3.09376 10.1449V22.8551C3.09441 23.2225 3.19261 23.5832 3.37833 23.9003C3.56404 24.2174 3.83061 24.4794 4.15079 24.6598L15.4945 31.0406C15.7801 31.1964 16.0976 31.2846 16.4227 31.2984H16.6031C16.92 31.2844 17.2291 31.1961 17.5055 31.0406L28.8492 24.6598C29.1694 24.4794 29.436 24.2174 29.6217 23.9003C29.8074 23.5832 29.9056 23.2225 29.9063 22.8551V10.1449C29.9081 9.78743 29.8147 9.43591 29.6356 9.12655ZM16.5 3.76405L26.7738 9.53905L22.8293 11.782L12.4266 6.04569L16.5 3.76405ZM16.616 15.3141L6.23907 9.53905L10.3125 7.24452L20.7281 12.9808L16.616 15.3141ZM17.5442 28.6558L17.6473 17.1058L21.7852 14.7469V19.6582C21.7852 19.9317 21.8938 20.194 22.0872 20.3874C22.2806 20.5808 22.5429 20.6894 22.8164 20.6894C23.0899 20.6894 23.3522 20.5808 23.5456 20.3874C23.739 20.194 23.8477 19.9317 23.8477 19.6582V13.5738L27.8438 11.3051V22.8551L17.5442 28.6558Z" fill="#161628"></path>
                    </svg>