<svg width="26" height="26" viewBox="0 0 26 26" fill="none" xmlns="http://www.w3.org/2000/svg">
                      <path d="M13 17.875C15.6924 17.875 17.875 15.6924 17.875 13C17.875 10.3076 15.6924 8.125 13 8.125C10.3076 8.125 8.125 10.3076 8.125 13C8.125 15.6924 10.3076 17.875 13 17.875Z" stroke="#161628" stroke-width="2" stroke-linecap="round" stroke-linejoin="round"></path>
                      <path d="M20.0478 8.19624C20.2923 8.5463 20.5063 8.91666 20.6876 9.30327L23.3181 10.7658C23.6465 12.2369 23.65 13.7619 23.3282 15.2345L20.6876 16.697C20.5063 17.0836 20.2923 17.454 20.0478 17.8041L20.0985 20.8205C18.9837 21.8363 17.6643 22.6017 16.229 23.065L13.6392 21.5111C13.2132 21.5416 12.7855 21.5416 12.3595 21.5111L9.7798 23.0548C8.33995 22.5999 7.01617 21.8376 5.90011 20.8205L5.95089 17.8142C5.70843 17.4593 5.49448 17.0857 5.31105 16.697L2.68058 15.2345C2.35212 13.7634 2.34866 12.2384 2.67042 10.7658L5.31105 9.30327C5.49232 8.91666 5.70638 8.5463 5.95089 8.19624L5.90011 5.17983C7.01491 4.16397 8.33434 3.39863 9.76964 2.9353L12.3595 4.48921C12.7855 4.45874 13.2132 4.45874 13.6392 4.48921L16.2189 2.94546C17.6587 3.40035 18.9825 4.16274 20.0985 5.17983L20.0478 8.19624Z" stroke="#161628" stroke-width="2" stroke-linecap="round" stroke-linejoin="round"></path>
                    </svg>