<svg width="562" height="711" viewBox="0 0 562 711" fill="none" xmlns="http://www.w3.org/2000/svg">
<rect width="562" height="711" fill="#1B2752"/>
<path style="mix-blend-mode:multiply" d="M343.006 366.542L450.844 304.821L252.447 250.56L74 352.8L129.608 384.995H202.18L76.749 456.925L132.357 489.042H313.553L492 386.802L343.006 366.542Z" fill="url(#paint0_linear_3_2)"/>
<path d="M401.441 358.611L342.534 392.691L286.927 360.495L345.833 326.415L401.441 358.611Z" fill="#D4D4D4"/>
<path d="M385.969 305.37L377.251 310.945L291.404 261.631L300.122 256.056L385.969 305.37Z" fill="#D6B163"/>
<path d="M377.25 310.946V327.829L291.404 278.515V261.632L377.25 310.946Z" fill="#7D5129"/>
<path d="M340.964 293.513V303.25L371.36 320.761V311.102L340.964 293.513Z" fill="#B78841"/>
<path d="M298.001 268.935V278.672L328.554 296.183V286.446L298.001 268.935Z" fill="#B78841"/>
<path d="M385.968 305.37V322.881L377.25 327.828V310.945L385.968 305.37Z" fill="#91693A"/>
<path d="M305.934 273.646L298.001 278.672V268.935L305.934 273.646Z" fill="#613F1F"/>
<path d="M348.818 298.224L340.964 303.25V293.513L348.818 298.224Z" fill="#613F1F"/>
<path d="M347.64 327.357L338.921 332.932L253.075 283.618L261.793 278.043L347.64 327.357Z" fill="#D6B163"/>
<path d="M338.921 332.932V349.815L253.075 300.501V283.618L338.921 332.932Z" fill="#7D5129"/>
<path d="M302.636 315.5V325.237L333.031 342.748V333.09L302.636 315.5Z" fill="#B78841"/>
<path d="M259.673 290.922V300.659L290.226 318.17V308.433L259.673 290.922Z" fill="#B78841"/>
<path d="M347.64 327.357V344.869L338.922 349.816V332.933L347.64 327.357Z" fill="#91693A"/>
<path d="M267.606 295.633L259.673 300.659V290.922L267.606 295.633Z" fill="#613F1F"/>
<path d="M310.49 320.212L302.636 325.237V315.5L310.49 320.212Z" fill="#613F1F"/>
<path d="M309.311 349.423L300.593 354.92L214.825 305.606L223.543 300.03L309.311 349.423Z" fill="#D6B163"/>
<path d="M300.593 354.92V371.881L214.825 322.488V305.605L300.593 354.92Z" fill="#7D5129"/>
<path d="M264.307 337.487V347.303L294.781 364.736V355.077L264.307 337.487Z" fill="#B78841"/>
<path d="M221.423 312.908V322.645L251.897 340.157V330.419L221.423 312.908Z" fill="#B78841"/>
<path d="M309.311 349.423V366.856L300.593 371.881V354.92L309.311 349.423Z" fill="#91693A"/>
<path d="M229.277 317.62L221.423 322.645V312.908L229.277 317.62Z" fill="#613F1F"/>
<path d="M272.239 342.199L264.307 347.303V337.487L272.239 342.199Z" fill="#613F1F"/>
<path d="M291.953 345.104L300.593 350.68L385.968 301.13L377.25 295.555L291.953 345.104Z" fill="#D6B163"/>
<path d="M300.593 350.68V354.92L385.968 305.37V301.13L300.593 350.68Z" fill="#AD7E45"/>
<path d="M291.953 345.104V349.973L300.593 354.92V350.68L291.953 345.104Z" fill="#996232"/>
<path d="M272.633 334.032L281.351 339.607L366.647 290.058L357.929 284.482L272.633 334.032Z" fill="#D6B163"/>
<path d="M281.351 339.607V343.848L366.647 294.298V290.058L281.351 339.607Z" fill="#AD7E45"/>
<path d="M272.633 334.032V338.901L281.351 343.848V339.608L272.633 334.032Z" fill="#996232"/>
<path d="M253.39 322.96L262.108 328.535L347.404 278.985L338.686 273.41L253.39 322.96Z" fill="#D6B163"/>
<path d="M262.107 328.535V332.775L347.404 283.226V278.985L262.107 328.535Z" fill="#AD7E45"/>
<path d="M253.39 322.96V327.829L262.108 332.776V328.535L253.39 322.96Z" fill="#996232"/>
<path d="M234.068 311.888L242.787 317.463L328.083 267.835L319.365 262.26L234.068 311.888Z" fill="#D6B163"/>
<path d="M242.786 317.463V321.704L328.083 272.154V267.835L242.786 317.463Z" fill="#AD7E45"/>
<path d="M234.068 311.888V316.678L242.787 321.703V317.463L234.068 311.888Z" fill="#996232"/>
<path d="M214.825 300.816L223.543 306.391L308.84 256.763L300.122 251.188L214.825 300.816Z" fill="#D6B163"/>
<path d="M223.544 306.391V310.631L308.84 261.003V256.763L223.544 306.391Z" fill="#AD7E45"/>
<path d="M214.825 300.815V305.605L223.543 310.631V306.391L214.825 300.815Z" fill="#996232"/>
<path d="M303.186 344.79L222.209 298.067V183.812L303.186 230.535V344.79Z" fill="#BA9D5E"/>
<path d="M295.095 235.168V330.812L230.298 293.356V197.79L295.095 235.168Z" fill="#A17F4C"/>
<path d="M359.735 197.79L303.185 230.535V344.79L359.735 312.202V197.79Z" fill="#D1A64F"/>
<path d="M303.185 344.791L371.987 305.057V190.802L303.185 230.536V344.791Z" fill="#D2B371"/>
<path d="M311.274 235.169V330.813L363.897 300.345V204.779L311.274 235.169Z" fill="#C5A666"/>
<path d="M360.756 298.539V206.585L363.897 204.779V300.345L311.274 330.813V327.122L360.756 298.539Z" fill="#A17F4C"/>
<path d="M311.274 276.394V282.833L363.897 249.617L360.756 247.811L311.274 276.394Z" fill="#F5DF95"/>
<path d="M363.897 258.569V249.617L311.274 280.007V288.959L363.897 258.569Z" fill="#D2B371"/>
<path d="M360.756 298.538L363.897 300.344L311.274 330.812V327.121L360.756 298.538Z" fill="#F5DF95"/>
<path d="M233.361 291.55V199.596L230.22 197.79V293.356L295.095 330.812V327.122L233.361 291.55Z" fill="#C9A963"/>
<path d="M295.095 276.394V282.833L230.298 242.628L233.44 240.822L295.095 276.394Z" fill="#DFBF7B"/>
<path d="M230.22 251.58V242.628L295.095 280.006V288.958L230.22 251.58Z" fill="#BA9D5E"/>
<path d="M233.361 291.55L230.22 293.356L295.095 330.813V327.122L233.361 291.55Z" fill="#DFBF7B"/>
<path d="M359.736 197.868L303.186 230.535L222.209 183.734L278.681 151.146L359.736 197.868Z" fill="#D1A64F"/>
<path d="M222.209 183.734L290.933 144L371.988 190.801L303.186 230.535L222.209 183.734Z" fill="#F5DF95"/>
<path d="M303.185 221.191L238.388 183.734L290.932 153.345L355.808 190.801L303.185 221.191Z" fill="#E3C87F"/>
<path d="M291.011 156.957L352.666 192.608L355.808 190.801L290.932 153.345L238.388 183.734L241.529 185.619L291.011 156.957Z" fill="#A17F4C"/>
<path d="M274.36 204.779L268.783 201.56L324.077 172.427L323.998 176.039L274.36 204.779Z" fill="#D2B371"/>
<path d="M316.302 167.95L324.077 172.426L271.219 202.973L263.521 198.497L316.302 167.95Z" fill="#F5DF95"/>
<path d="M291.011 156.957L290.932 153.345L238.388 183.734L241.529 185.619L291.011 156.957Z" fill="#D2B371"/>
<path d="M356.908 220.641V229.043L352.981 231.242V222.84L351.096 223.939L355.023 215.615L358.871 219.463L356.908 220.641Z" fill="#654532"/>
<path d="M326.904 229.515L315.28 251.894L324.862 259.433L336.487 237.053L326.904 229.515Z" fill="#C9C9C9"/>
<path d="M348.033 224.567C347.921 225.138 347.736 225.693 347.483 226.216C347.245 226.782 346.928 227.311 346.54 227.787C346.16 228.219 345.739 228.613 345.284 228.965V233.99C346.147 233.519 346.776 233.598 346.933 233.99L342.77 236.425C343.101 235.658 343.646 235.003 344.341 234.54V229.514C344.03 229.574 343.71 229.574 343.398 229.514C343.061 229.473 342.752 229.305 342.535 229.043C342.252 228.753 342.038 228.405 341.906 228.022C341.738 227.299 341.738 226.547 341.906 225.824C341.906 225.824 341.906 225.352 341.906 225.038L345.126 223.311L348.268 221.505C348.268 221.505 348.268 221.897 348.268 222.133C348.348 222.952 348.268 223.779 348.033 224.567V224.567Z" fill="#654532"/>
<path d="M492 369.368L483.36 374.944L397.514 325.551L406.232 319.976L492 369.368Z" fill="#D6B163"/>
<path d="M483.36 374.943V391.826L397.514 342.434V325.551L483.36 374.943Z" fill="#7D5129"/>
<path d="M446.995 357.433V367.248L477.469 384.76V375.022L446.995 357.433Z" fill="#B78841"/>
<path d="M404.111 332.854V342.67L434.586 360.103V350.366L404.111 332.854Z" fill="#B78841"/>
<path d="M492 369.368V386.801L483.36 391.826V374.943L492 369.368Z" fill="#91693A"/>
<path d="M411.965 337.566L404.111 342.67V332.854L411.965 337.566Z" fill="#613F1F"/>
<path d="M454.928 362.144L446.995 367.248V357.433L454.928 362.144Z" fill="#613F1F"/>
<path d="M453.671 391.356L445.032 396.931L359.186 347.617L367.904 342.042L453.671 391.356Z" fill="#D6B163"/>
<path d="M445.032 396.931V413.814L359.186 364.5V347.617L445.032 396.931Z" fill="#7D5129"/>
<path d="M408.745 379.42V389.236L439.141 406.747V397.01L408.745 379.42Z" fill="#B78841"/>
<path d="M365.783 354.842V364.658L396.257 382.169V372.353L365.783 354.842Z" fill="#B78841"/>
<path d="M453.671 391.355V408.867L445.031 413.814V396.931L453.671 391.355Z" fill="#91693A"/>
<path d="M373.716 359.553L365.783 364.657V354.842L373.716 359.553Z" fill="#613F1F"/>
<path d="M416.599 384.21L408.745 389.236V379.42L416.599 384.21Z" fill="#613F1F"/>
<path d="M415.421 413.343L406.703 418.919L320.856 369.605L329.575 364.029L415.421 413.343Z" fill="#D6B163"/>
<path d="M406.703 418.919V435.802L320.856 386.488V369.604L406.703 418.919Z" fill="#7D5129"/>
<path d="M370.417 401.485V411.223L400.891 428.734V418.997L370.417 401.485Z" fill="#B78841"/>
<path d="M327.455 376.907V386.644L358.008 404.156V394.418L327.455 376.907Z" fill="#B78841"/>
<path d="M415.421 413.343V430.854L406.703 435.801V418.918L415.421 413.343Z" fill="#91693A"/>
<path d="M335.388 381.619L327.455 386.644V376.907L335.388 381.619Z" fill="#613F1F"/>
<path d="M378.271 406.197L370.417 411.223V401.485L378.271 406.197Z" fill="#613F1F"/>
<path d="M397.985 409.102L406.703 414.678L492 365.128L483.36 359.553L397.985 409.102Z" fill="#D6B163"/>
<path d="M406.703 414.678V418.918L492 369.368V365.128L406.703 414.678Z" fill="#AD7E45"/>
<path d="M397.985 409.103V413.971L406.703 418.918V414.678L397.985 409.103Z" fill="#996232"/>
<path d="M378.742 398.031L387.46 403.606L472.757 353.978L464.039 348.402L378.742 398.031Z" fill="#D6B163"/>
<path d="M387.461 403.606V407.846L472.757 358.296V353.978L387.461 403.606Z" fill="#AD7E45"/>
<path d="M378.742 398.03V402.82L387.46 407.846V403.606L378.742 398.03Z" fill="#996232"/>
<path d="M359.421 386.88L368.139 392.455L453.435 342.905L444.717 337.33L359.421 386.88Z" fill="#D6B163"/>
<path d="M368.139 392.455V396.774L453.435 347.146V342.905L368.139 392.455Z" fill="#AD7E45"/>
<path d="M359.421 386.88V391.748L368.139 396.774V392.455L359.421 386.88Z" fill="#996232"/>
<path d="M340.179 375.807L348.897 381.383L434.193 331.833L425.475 326.258L340.179 375.807Z" fill="#D6B163"/>
<path d="M348.896 381.383V385.623L434.193 336.073V331.833L348.896 381.383Z" fill="#AD7E45"/>
<path d="M340.179 375.808V380.676L348.897 385.623V381.383L340.179 375.808Z" fill="#996232"/>
<path d="M320.856 364.735L329.575 370.311L414.871 320.761L406.231 315.186L320.856 364.735Z" fill="#D6B163"/>
<path d="M329.575 370.311V374.552L414.872 325.002V320.762L329.575 370.311Z" fill="#AD7E45"/>
<path d="M320.856 364.735V369.604L329.575 374.551V370.311L320.856 364.735Z" fill="#996232"/>
<path d="M409.295 408.789L328.24 361.987V247.732L409.295 294.455V408.789Z" fill="#BA9D5E"/>
<path d="M401.206 299.167V394.732L336.33 357.354V261.71L401.206 299.167Z" fill="#A17F4C"/>
<path d="M465.766 261.71L409.295 294.455V408.789L465.766 376.2V261.71Z" fill="#D1A64F"/>
<path d="M409.295 408.788L478.019 368.976V254.721L409.295 294.455V408.788Z" fill="#D2B371"/>
<path d="M417.385 299.166V394.732L469.929 364.342V268.698L417.385 299.166Z" fill="#C5A666"/>
<path d="M466.788 362.458V270.504L469.929 268.698V364.342L417.385 394.81V391.12L466.788 362.458Z" fill="#A17F4C"/>
<path d="M417.385 340.393V346.832L469.929 313.537L466.788 311.81L417.385 340.393Z" fill="#F5DF95"/>
<path d="M469.929 322.489V313.537L417.385 344.005V352.957L469.929 322.489Z" fill="#D2B371"/>
<path d="M466.788 362.458L469.929 364.343L417.385 394.811V391.12L466.788 362.458Z" fill="#F5DF95"/>
<path d="M339.472 355.47V263.516L336.33 261.71V357.354L401.206 394.811V391.12L339.472 355.47Z" fill="#C9A963"/>
<path d="M401.206 340.392V346.832L336.33 306.548L339.472 304.82L401.206 340.392Z" fill="#DFBF7B"/>
<path d="M336.33 315.5V306.548L401.206 344.005V352.957L336.33 315.5Z" fill="#BA9D5E"/>
<path d="M339.472 355.47L336.33 357.354L401.206 394.811V391.12L339.472 355.47Z" fill="#DFBF7B"/>
<path d="M465.845 261.867L409.295 294.455L328.318 247.732L384.79 215.065L465.845 261.867Z" fill="#D1A64F"/>
<path d="M328.318 247.732L397.042 207.92L478.019 254.721L409.295 294.455L328.318 247.732Z" fill="#F5DF95"/>
<path d="M409.295 285.189L344.498 247.733L397.043 217.265L461.84 254.721L409.295 285.189Z" fill="#E3C87F"/>
<path d="M397.043 220.955L458.698 256.527L461.84 254.721L397.043 217.265L344.42 247.733L347.64 249.539L397.043 220.955Z" fill="#A17F4C"/>
<path d="M380.47 268.698L374.894 265.479L430.108 236.346V239.958L380.47 268.698Z" fill="#D2B371"/>
<path d="M422.411 231.87L430.108 236.346L377.328 266.893L369.553 262.495L422.411 231.87Z" fill="#F5DF95"/>
<path d="M397.043 220.955V217.265L344.42 247.733L347.64 249.539L397.043 220.955Z" fill="#D2B371"/>
<path d="M463.018 284.561L462.939 292.964L459.09 295.162V286.76L457.127 287.859L461.054 279.614L464.981 283.462L463.018 284.561Z" fill="#654532"/>
<path d="M432.936 293.435L421.312 315.814L430.894 323.353L442.518 300.973L432.936 293.435Z" fill="#C9C9C9"/>
<path d="M454.142 288.173C454.001 288.771 453.79 289.351 453.514 289.901C453.307 290.482 452.987 291.016 452.571 291.471C452.217 291.877 451.822 292.245 451.393 292.57V297.596C452.178 297.204 452.886 297.204 453.043 297.596L448.88 300.03C449.225 299.273 449.767 298.621 450.451 298.146V293.199H449.587C449.406 293.188 449.229 293.141 449.067 293.06C448.905 292.979 448.761 292.866 448.644 292.727C448.415 292.442 448.23 292.125 448.094 291.785C447.932 291.061 447.932 290.31 448.094 289.586C448.052 289.326 448.052 289.061 448.094 288.801V288.801L451.236 286.995L454.456 285.268C454.49 285.476 454.49 285.688 454.456 285.896C454.498 286.668 454.391 287.441 454.142 288.173V288.173Z" fill="#654532"/>
<path d="M398.85 422.609L390.131 428.184L304.285 378.792L313.003 373.295L398.85 422.609Z" fill="#D6B163"/>
<path d="M390.131 428.185V445.068L304.285 395.754V378.792L390.131 428.185Z" fill="#7D5129"/>
<path d="M353.845 410.673V420.489L384.24 438V428.263L353.845 410.673Z" fill="#B78841"/>
<path d="M310.882 386.095V395.91L341.435 413.422V403.606L310.882 386.095Z" fill="#B78841"/>
<path d="M398.849 422.609V440.042L390.131 445.068V428.185L398.849 422.609Z" fill="#91693A"/>
<path d="M318.815 390.806L310.882 395.91V386.095L318.815 390.806Z" fill="#613F1F"/>
<path d="M361.699 415.384L353.845 420.489V410.673L361.699 415.384Z" fill="#613F1F"/>
<path d="M360.52 444.596L351.802 450.172L266.034 400.858L274.674 395.282L360.52 444.596Z" fill="#D6B163"/>
<path d="M351.802 450.172V467.055L266.034 417.74V400.857L351.802 450.172Z" fill="#7D5129"/>
<path d="M315.517 432.738V442.475L345.991 459.987V450.249L315.517 432.738Z" fill="#B78841"/>
<path d="M272.633 408.082V417.898L303.107 435.409V425.672L272.633 408.082Z" fill="#B78841"/>
<path d="M360.521 444.596V462.107L351.803 467.054V450.171L360.521 444.596Z" fill="#91693A"/>
<path d="M280.487 412.794L272.633 417.898V408.082L280.487 412.794Z" fill="#613F1F"/>
<path d="M323.449 437.45L315.517 442.475V432.738L323.449 437.45Z" fill="#613F1F"/>
<path d="M322.192 466.584L313.552 472.159L227.706 422.845L236.424 417.27L322.192 466.584Z" fill="#D6B163"/>
<path d="M313.552 472.159V489.042L227.706 439.728V422.845L313.552 472.159Z" fill="#7D5129"/>
<path d="M277.266 454.726V464.463L307.661 481.974V472.315L277.266 454.726Z" fill="#B78841"/>
<path d="M234.304 430.147V439.885L264.778 457.396V447.659L234.304 430.147Z" fill="#B78841"/>
<path d="M322.192 466.583V484.094L313.553 489.041V472.158L322.192 466.583Z" fill="#91693A"/>
<path d="M242.236 434.859L234.304 439.885V430.147L242.236 434.859Z" fill="#613F1F"/>
<path d="M285.12 459.437L277.266 464.463V454.726L285.12 459.437Z" fill="#613F1F"/>
<path d="M304.834 462.343L313.552 467.918L398.849 418.368L390.13 412.793L304.834 462.343Z" fill="#D6B163"/>
<path d="M313.553 467.918V472.158L398.849 422.609V418.368L313.553 467.918Z" fill="#AD7E45"/>
<path d="M304.834 462.343V467.211L313.552 472.158V467.918L304.834 462.343Z" fill="#996232"/>
<path d="M285.513 451.27L294.231 456.846L379.527 407.218L370.888 401.721L285.513 451.27Z" fill="#D6B163"/>
<path d="M294.231 456.846V461.086L379.528 411.537V407.218L294.231 456.846Z" fill="#AD7E45"/>
<path d="M285.513 451.271V456.061L294.231 461.086V456.846L285.513 451.271Z" fill="#996232"/>
<path d="M266.271 440.199L274.989 445.695L360.285 396.146L351.567 390.57L266.271 440.199Z" fill="#D6B163"/>
<path d="M274.988 445.695V450.014L360.285 400.386V396.146L274.988 445.695Z" fill="#AD7E45"/>
<path d="M266.271 440.199V444.989L274.989 450.015V445.696L266.271 440.199Z" fill="#996232"/>
<path d="M246.949 429.048L255.667 434.623L340.964 385.073L332.324 379.498L246.949 429.048Z" fill="#D6B163"/>
<path d="M255.667 434.623V438.863L340.963 389.314V385.073L255.667 434.623Z" fill="#AD7E45"/>
<path d="M246.949 429.048V433.916L255.667 438.864V434.623L246.949 429.048Z" fill="#996232"/>
<path d="M227.706 417.975L236.424 423.551L321.721 374.001L313.002 368.426L227.706 417.975Z" fill="#D6B163"/>
<path d="M236.425 423.552V427.792L321.721 378.242V374.002L236.425 423.552Z" fill="#AD7E45"/>
<path d="M227.706 417.976V422.844L236.424 427.791V423.551L227.706 417.976Z" fill="#996232"/>
<path d="M313.788 415.149L274.281 392.377V349.895L313.788 372.667V415.149Z" fill="#A17F4C"/>
<path d="M345.126 354.449L313.788 372.667V415.15L345.126 397.089V354.449Z" fill="#CFA658"/>
<path d="M317.244 389.471V375.808L327.298 369.997V383.66L317.244 389.471ZM317.872 376.2V388.45L326.826 383.268V370.939L317.872 376.2Z" fill="#A05E00"/>
<path d="M323.841 377.535L323.763 383.974L320.778 385.702L320.857 379.184L319.364 380.048L322.349 373.688L325.333 376.671L323.841 377.535Z" fill="#A05E00"/>
<path d="M345.126 354.448L313.788 372.666L295.252 361.987L289.204 358.532L274.281 349.815L305.619 331.676L320.621 340.314L326.669 343.769L345.126 354.448Z" fill="#F5DF95"/>
<path d="M295.252 361.988L289.204 358.532L320.621 340.314L326.669 343.77L295.252 361.988Z" fill="#FEE9AB"/>
<path d="M288.498 396.932L277.188 390.414V380.677L288.498 387.116V396.932Z" fill="#ABABAB"/>
<path d="M287.87 395.674L277.816 389.942V389.471L287.87 395.203V395.674Z" fill="#595959"/>
<path d="M287.87 394.418L277.816 388.686V388.215L287.87 394.026V394.418Z" fill="#595959"/>
<path d="M287.87 393.241L277.816 387.43V387.037L287.87 392.769V393.241Z" fill="#595959"/>
<path d="M287.87 391.984L277.816 386.251V385.78L287.87 391.513V391.984Z" fill="#595959"/>
<path d="M287.87 389.707L277.816 383.896V382.482L287.87 388.293V389.707Z" fill="#595959"/>
<path d="M289.204 358.532V372.824L290.382 369.447L291.717 374.237L293.445 371.175L295.016 376.043L295.252 361.987L289.204 358.532Z" fill="#DBC68A"/>
<path d="M334.288 366.855L331.382 368.505V372.352L334.288 370.625V366.855Z" fill="#A05E00"/>
<path d="M338.293 364.5L335.466 366.149V369.997L338.293 368.348V364.5Z" fill="#A05E00"/>
<path d="M342.299 362.223L339.472 363.872V367.719L342.299 365.992V362.223Z" fill="#A05E00"/>
<path d="M276.088 437.058L236.581 414.207V371.725L276.088 394.497V437.058Z" fill="#A17F4C"/>
<path d="M307.426 376.279L276.088 394.497V437.058L307.426 418.919V376.279Z" fill="#CFA658"/>
<path d="M279.544 411.301V398.109L289.597 392.298V405.961L279.544 411.301ZM280.172 398.109V410.437L289.204 405.176V392.847L280.172 398.109Z" fill="#A05E00"/>
<path d="M286.063 399.365V405.804L283.078 407.532L283.157 401.093L281.586 401.878L284.649 395.518L287.634 398.502L286.063 399.365Z" fill="#A05E00"/>
<path d="M307.426 376.358L276.088 394.497L257.473 383.818L251.504 380.363L236.581 371.725L267.919 353.507L282.921 362.145L288.89 365.678L307.426 376.358Z" fill="#F5DF95"/>
<path d="M257.474 383.818L251.505 380.362L282.922 362.145L288.891 365.678L257.474 383.818Z" fill="#FEE9AB"/>
<path d="M250.797 418.761L239.487 412.322V402.506L250.797 408.945V418.761Z" fill="#ABABAB"/>
<path d="M250.169 417.504L240.037 411.772V411.301L250.169 417.112V417.504Z" fill="#595959"/>
<path d="M250.169 416.327L240.037 410.516V410.123L250.169 415.855V416.327Z" fill="#595959"/>
<path d="M250.169 415.071L240.037 409.338V408.867L250.169 414.6V415.071Z" fill="#595959"/>
<path d="M250.169 413.892L240.037 408.081V407.688L250.169 413.421V413.892Z" fill="#595959"/>
<path d="M250.169 411.536L240.037 405.804V404.391L250.169 410.123V411.536Z" fill="#595959"/>
<path d="M251.504 380.362L251.426 394.654L252.682 391.356L254.018 396.067L255.746 393.005L257.316 397.874L257.474 383.817L251.504 380.362Z" fill="#DBC68A"/>
<path d="M296.588 388.686L293.682 390.335V394.182L296.588 392.533V388.686Z" fill="#A05E00"/>
<path d="M300.593 386.33L297.687 388.058V391.905L300.593 390.178V386.33Z" fill="#A05E00"/>
<path d="M304.599 384.053L301.771 385.702V389.55L304.599 387.9V384.053Z" fill="#A05E00"/>
<path d="M357.615 440.199L318.108 417.426V374.865L357.615 397.638V440.199Z" fill="#A17F4C"/>
<path d="M388.953 379.498L357.615 397.637V440.198L388.953 422.059V379.498Z" fill="#D2B371"/>
<path d="M361.07 414.521V400.858L371.124 395.047V408.711L361.07 414.521ZM361.699 401.172V413.815L370.652 408.632V396.303L361.699 401.172Z" fill="#A05E00"/>
<path d="M367.668 402.507L367.59 409.024L364.605 410.673L364.684 404.234L363.191 405.098L366.176 398.737L369.161 401.643L367.668 402.507Z" fill="#A05E00"/>
<path d="M388.953 379.498L357.615 397.638L339.079 386.958L333.031 383.503L318.108 374.865L349.447 356.647L364.448 365.285L370.496 368.819L388.953 379.498Z" fill="#F5DF95"/>
<path d="M339.079 386.958L333.031 383.503L364.448 365.285L370.496 368.819L339.079 386.958Z" fill="#FEE9AB"/>
<path d="M332.325 421.902L321.015 415.463V405.647L332.325 412.165V421.902Z" fill="#ABABAB"/>
<path d="M331.696 420.724L321.643 414.913V414.521L331.696 420.253V420.724Z" fill="#595959"/>
<path d="M331.696 419.468L321.643 413.736V413.265L331.696 418.997V419.468Z" fill="#595959"/>
<path d="M331.696 418.211L321.643 412.479V412.008L331.696 417.819V418.211Z" fill="#595959"/>
<path d="M331.696 417.034L321.643 411.223V410.83L331.696 416.562V417.034Z" fill="#595959"/>
<path d="M331.696 414.678L321.643 408.946V407.532L331.696 413.265V414.678Z" fill="#595959"/>
<path d="M333.031 383.503V397.873L334.209 394.497L335.545 399.208L337.273 396.146L338.843 401.014L339.079 386.958L333.031 383.503Z" fill="#DBC68A"/>
<path d="M378.114 391.827L375.208 393.476V397.324L378.114 395.675V391.827Z" fill="#A05E00"/>
<path d="M382.12 389.55L379.292 391.199V395.047L382.12 393.398V389.55Z" fill="#A05E00"/>
<path d="M386.125 387.194L383.298 388.843V392.691L386.125 391.042V387.194Z" fill="#A05E00"/>
<path d="M319.914 462.029L280.329 439.257V396.774L319.914 419.547V462.029Z" fill="#A17F4C"/>
<path d="M351.253 401.328L319.915 419.546V462.028L351.253 443.968V401.328Z" fill="#D2B371"/>
<path d="M323.37 436.351V422.688L333.345 416.877V430.54L323.37 436.351ZM323.92 423.08V435.33L332.952 430.148V417.819L323.92 423.08Z" fill="#A05E00"/>
<path d="M329.968 424.415L329.89 430.854L326.905 432.582V426.064L325.491 426.928L328.476 420.567L331.382 423.551L329.968 424.415Z" fill="#A05E00"/>
<path d="M351.252 401.328L319.914 419.546L301.378 408.867L295.331 405.333L280.329 396.774L311.746 378.556L326.747 387.193L332.795 390.649L351.252 401.328Z" fill="#F5DF95"/>
<path d="M301.379 408.867L295.331 405.334L326.748 387.194L332.796 390.649L301.379 408.867Z" fill="#FEE9AB"/>
<path d="M294.624 443.81L283.235 437.293V427.556L294.624 433.995V443.81Z" fill="#ABABAB"/>
<path d="M293.996 442.554L283.942 436.822V436.351L293.996 442.083V442.554Z" fill="#595959"/>
<path d="M293.996 441.298L283.942 435.566V435.095L293.996 440.906V441.298Z" fill="#595959"/>
<path d="M293.996 440.121L283.942 434.31V433.917L293.996 439.649V440.121Z" fill="#595959"/>
<path d="M293.996 438.864L283.942 433.131V432.66L293.996 438.393V438.864Z" fill="#595959"/>
<path d="M293.996 436.587L283.942 430.776V429.362L293.996 435.173V436.587Z" fill="#595959"/>
<path d="M295.331 405.333V419.703L296.509 416.327L297.844 421.038L299.572 418.054L301.143 422.923L301.379 408.867L295.331 405.333Z" fill="#DBC68A"/>
<path d="M340.414 413.657L337.508 415.385V419.233L340.414 417.584V413.657Z" fill="#A05E00"/>
<path d="M344.42 411.38L341.514 413.029V416.877L344.42 415.228V411.38Z" fill="#A05E00"/>
<path d="M348.425 409.103L345.598 410.752V414.599L348.425 412.872V409.103Z" fill="#A05E00"/>
<path d="M313.788 371.175L274.281 348.324V305.842L313.788 328.614V371.175Z" fill="#A17F4C"/>
<path d="M345.126 310.396L313.788 328.613V371.174L345.126 353.035V310.396Z" fill="#CFA658"/>
<path d="M317.244 345.418V331.754L327.298 325.943V339.607L317.244 345.418ZM317.872 332.147V344.397L326.826 339.214V326.886L317.872 332.147Z" fill="#A05E00"/>
<path d="M323.841 333.483L323.763 339.922L320.778 341.649L320.857 335.21L319.364 335.995L322.349 329.635L325.333 332.619L323.841 333.483Z" fill="#A05E00"/>
<path d="M345.126 310.395L313.788 328.613L295.252 317.934L289.204 314.479L274.281 305.841L305.619 287.623L320.621 296.261L326.669 299.716L345.126 310.395Z" fill="#F5DF95"/>
<path d="M295.252 317.935L289.204 314.48L320.621 296.262L326.669 299.717L295.252 317.935Z" fill="#FEE9AB"/>
<path d="M288.498 352.878L277.188 346.439V336.623L288.498 343.141V352.878Z" fill="#ABABAB"/>
<path d="M287.87 351.621L277.816 345.889V345.418L287.87 351.229V351.621Z" fill="#595959"/>
<path d="M287.87 350.444L277.816 344.633V344.24L287.87 349.973V350.444Z" fill="#595959"/>
<path d="M287.87 349.188L277.816 343.456V342.984L287.87 348.717V349.188Z" fill="#595959"/>
<path d="M287.87 347.931L277.816 342.199V341.728L287.87 347.538V347.931Z" fill="#595959"/>
<path d="M287.87 345.654L277.816 339.921V338.508L287.87 344.24V345.654Z" fill="#595959"/>
<path d="M289.204 314.479V328.771L290.382 325.473L291.717 330.185L293.445 327.122L295.016 331.991L295.252 317.935L289.204 314.479Z" fill="#DBC68A"/>
<path d="M334.288 322.803L331.382 324.452V328.3L334.288 326.65V322.803Z" fill="#A05E00"/>
<path d="M338.293 320.447L335.466 322.175V326.023L338.293 324.295V320.447Z" fill="#A05E00"/>
<path d="M342.299 318.17L339.472 319.819V323.667L342.299 322.018V318.17Z" fill="#A05E00"/>
<path d="M276.088 393.005L236.581 370.233V327.672L276.088 350.523V393.005Z" fill="#A17F4C"/>
<path d="M307.426 332.305L276.088 350.523V393.005L307.426 374.866V332.305Z" fill="#CFA658"/>
<path d="M279.544 367.327V353.663L289.597 347.853V361.516L279.544 367.327ZM280.094 353.978V366.699L289.126 361.516V349.187L280.094 353.978Z" fill="#A05E00"/>
<path d="M286.063 355.312V361.83L283.078 363.479L283.157 357.04L281.586 357.904L284.649 351.543L287.634 354.527L286.063 355.312Z" fill="#A05E00"/>
<path d="M307.426 332.304L276.088 350.522L257.473 339.764L251.504 336.309L236.581 327.671L267.919 309.453L282.921 318.169L288.89 321.625L307.426 332.304Z" fill="#F5DF95"/>
<path d="M257.474 339.764L251.505 336.309L282.922 318.17L288.891 321.625L257.474 339.764Z" fill="#FEE9AB"/>
<path d="M250.797 374.786L239.487 368.269V358.453L250.797 364.971V374.786Z" fill="#ABABAB"/>
<path d="M250.169 373.531L240.037 367.72V367.327L250.169 373.06V373.531Z" fill="#595959"/>
<path d="M250.169 372.274L240.037 366.541V366.07L250.169 371.803V372.274Z" fill="#595959"/>
<path d="M250.169 371.018L240.037 365.286V364.814L250.169 370.625V371.018Z" fill="#595959"/>
<path d="M250.169 369.839L240.037 364.028V363.636L250.169 369.368V369.839Z" fill="#595959"/>
<path d="M250.169 367.484L240.037 361.751V360.338L250.169 366.149V367.484Z" fill="#595959"/>
<path d="M251.504 336.31L251.426 350.68L252.682 347.303L254.018 352.015L255.746 348.952L257.316 353.821L257.474 339.765L251.504 336.31Z" fill="#DBC68A"/>
<path d="M296.588 344.633L293.682 346.36V350.13L296.588 348.481V344.633Z" fill="#A05E00"/>
<path d="M300.593 342.355L297.687 344.004V347.852L300.593 346.203V342.355Z" fill="#A05E00"/>
<path d="M304.599 340L301.771 341.728V345.497L304.599 343.848V340Z" fill="#A05E00"/>
<path d="M357.615 396.145L318.108 373.373V330.891L357.615 353.663V396.145Z" fill="#A17F4C"/>
<path d="M388.953 335.445L357.615 353.663V396.146L388.953 378.085V335.445Z" fill="#D2B371"/>
<path d="M361.07 370.468V356.804L371.124 350.993V364.657L361.07 370.468ZM361.699 357.118V369.447L370.652 364.264V351.935L361.699 357.118Z" fill="#A05E00"/>
<path d="M367.668 358.532L367.59 364.971L364.605 366.699L364.684 360.181L363.191 361.045L366.176 354.685L369.161 357.669L367.668 358.532Z" fill="#A05E00"/>
<path d="M388.953 335.445L357.615 353.663L339.079 342.984L333.031 339.45L318.108 330.891L349.447 312.673L364.448 321.311L370.496 324.766L388.953 335.445Z" fill="#F5DF95"/>
<path d="M339.079 342.984L333.031 339.45L364.448 321.311L370.496 324.766L339.079 342.984Z" fill="#FEE9AB"/>
<path d="M332.325 377.928L321.015 371.41V361.673L332.325 368.112V377.928Z" fill="#ABABAB"/>
<path d="M331.696 376.671L321.643 370.939V370.468L331.696 376.2V376.671Z" fill="#595959"/>
<path d="M331.696 375.415L321.643 369.683V369.212L331.696 375.023V375.415Z" fill="#595959"/>
<path d="M331.696 374.237L321.643 368.426V368.033L331.696 373.766V374.237Z" fill="#595959"/>
<path d="M331.696 372.981L321.643 367.248V366.777L331.696 372.51V372.981Z" fill="#595959"/>
<path d="M331.696 370.625L321.643 364.893V363.479L331.696 369.29V370.625Z" fill="#595959"/>
<path d="M333.031 339.45V353.82L334.209 350.444L335.545 355.155L337.273 352.093L338.843 357.04L339.079 342.984L333.031 339.45Z" fill="#DBC68A"/>
<path d="M378.114 347.774L375.208 349.502V353.35L378.114 351.701V347.774Z" fill="#A05E00"/>
<path d="M382.12 345.497L379.292 347.146V350.994L382.12 349.345V345.497Z" fill="#A05E00"/>
<path d="M386.125 343.141L383.298 344.868V348.716L386.125 346.988V343.141Z" fill="#A05E00"/>
<path d="M319.914 418.054L280.329 395.203V352.721L319.914 375.493V418.054Z" fill="#A17F4C"/>
<path d="M351.253 357.275L319.915 375.493V418.054L351.253 399.915V357.275Z" fill="#D2B371"/>
<path d="M323.37 392.298V378.635L333.345 372.902V386.566L323.37 392.298ZM323.92 379.027V391.277L332.952 386.095V373.766L323.92 379.027Z" fill="#A05E00"/>
<path d="M329.968 380.362L329.89 386.802L326.905 388.529V382.09L325.491 382.875L328.476 376.515L331.382 379.499L329.968 380.362Z" fill="#A05E00"/>
<path d="M351.252 357.275L319.914 375.493L301.378 364.814L295.331 361.359L280.329 352.721L311.746 334.503L326.747 343.141L332.795 346.596L351.252 357.275Z" fill="#F5DF95"/>
<path d="M301.379 364.814L295.331 361.359L326.748 343.141L332.796 346.596L301.379 364.814Z" fill="#FEE9AB"/>
<path d="M294.624 399.758L283.235 393.319V383.503L294.624 389.942V399.758Z" fill="#ABABAB"/>
<path d="M293.996 398.501L283.942 392.769V392.298L293.996 398.109V398.501Z" fill="#595959"/>
<path d="M293.996 397.324L283.942 391.513V391.12L293.996 396.852V397.324Z" fill="#595959"/>
<path d="M293.996 396.068L283.942 390.335V389.864L293.996 395.597V396.068Z" fill="#595959"/>
<path d="M293.996 394.811L283.942 389.079V388.607L293.996 394.418V394.811Z" fill="#595959"/>
<path d="M293.996 392.534L283.942 386.801V385.388L293.996 391.12V392.534Z" fill="#595959"/>
<path d="M295.331 361.359V375.651L296.509 372.353L297.844 377.064L299.572 374.002L301.143 378.871L301.379 364.815L295.331 361.359Z" fill="#DBC68A"/>
<path d="M340.414 369.683L337.508 371.332V375.179L340.414 373.53V369.683Z" fill="#A05E00"/>
<path d="M344.42 367.327L341.514 369.055V372.824L344.42 371.175V367.327Z" fill="#A05E00"/>
<path d="M348.425 365.05L345.598 366.699V370.547L348.425 368.898V365.05Z" fill="#A05E00"/>
<defs>
<linearGradient id="paint0_linear_3_2" x1="74" y1="369.84" x2="492" y2="369.84" gradientUnits="userSpaceOnUse">
<stop offset="0.11" stop-color="#ABA9BA"/>
<stop offset="0.99" stop-color="#776E8C"/>
</linearGradient>
</defs>
</svg>
